<svg xmlns="http://www.w3.org/2000/svg" width="506.598" height="181.109" viewBox="0 0 506.598 181.109">
  <g>
    <g>
      <polygon points="158.536 112.865 158.536 135.963 80.318 181.109 80.318 157.486 158.536 112.865" fill="#e2e2e2"/>
      <polygon points="0 135.963 80.318 181.109 80.318 157.486 21.523 123.364 0 135.963" fill="#f0efef"/>
      <polygon points="0 48.296 20.998 57.22 21.523 123.364 0 135.963 0 48.296" fill="#f0efef"/>
      <polygon points="80.318 0 0 48.296 20.998 57.22 80.318 24.673 80.318 0" fill="#fdfefe"/>
      <polygon points="155.938 43.912 80.318 0 80.318 24.673 113.324 43.912 155.938 43.912" fill="#fdfefe"/>
      <polygon points="59.461 76.81 79.063 89.083 155.938 43.912 113.324 43.912 59.461 76.81" fill="#fdfefe"/>
    </g>
    <g>
      <g>
        <path d="M251.407,112.865V57.473h-.291l-24.351,55.392h-5.773l-24.3-55.392H196.4v55.392H190.19V45.357h7.615l25.952,59.368h.291l25.9-59.368h7.665v67.508Z" fill="#f4f4f5"/>
        <path d="M266.588,99.391c0-8.327,6.451-13.379,18.093-14.128l15.717-.936v-4.21c0-7.018-4.609-11.229-12.467-11.229-7.421,0-12.175,3.509-13.291,9.4h-6.209c.727-8.7,8.149-14.877,19.645-14.877S306.8,69.637,306.8,79.555v33.31h-6.112V103.6h-.146c-2.813,6.035-9.7,10.058-17.22,10.058C273.379,113.66,266.588,107.906,266.588,99.391Zm33.81-4.818v-5.38l-14.941.982c-7.955.515-12.369,3.837-12.369,9.216,0,5.287,4.7,8.936,11.545,8.936C293.461,108.327,300.4,102.292,300.4,94.573Z" fill="#f4f4f5"/>
        <path d="M334.5,63.415c10.769,0,17.948,6.035,18.53,14.877h-6.161c-.824-6.082-5.383-9.778-12.369-9.778-6.888,0-11.593,3.509-11.593,8.374,0,3.977,2.862,6.457,9.556,8l7.615,1.731c10.09,2.34,13.874,6.082,13.874,12.959,0,8.234-8,14.082-19.015,14.082-11.4,0-18.967-5.848-19.84-14.736h6.4c.97,6.128,5.869,9.637,13.437,9.637s12.563-3.415,12.563-8.515c0-4.21-2.473-6.549-9.264-8.14l-7.568-1.731c-9.6-2.152-14.116-6.222-14.116-12.959C316.549,69.169,323.971,63.415,334.5,63.415Z" fill="#f4f4f5"/>
        <path d="M360.739,99.391c0-8.327,6.452-13.379,18.093-14.128l15.717-.936v-4.21c0-7.018-4.608-11.229-12.467-11.229-7.421,0-12.175,3.509-13.291,9.4h-6.209c.728-8.7,8.15-14.877,19.646-14.877s18.724,6.222,18.724,16.14v33.31H394.84V103.6h-.146c-2.813,6.035-9.7,10.058-17.219,10.058C367.53,113.66,360.739,107.906,360.739,99.391Zm33.81-4.818v-5.38l-14.94.982c-7.956.515-12.37,3.837-12.37,9.216,0,5.287,4.705,8.936,11.545,8.936C387.612,108.327,394.549,102.292,394.549,94.573Z" fill="#f4f4f5"/>
        <path d="M409.2,88.538c0-15.158,8.78-25.123,21.441-25.123,8.149,0,14.6,4.491,17.268,10.807h.146V45.357H454.5v67.508h-6.111V102.573h-.146a18.605,18.605,0,0,1-17.463,11.087C418.025,113.66,409.2,103.649,409.2,88.538Zm6.6,0c0,11.883,6.4,19.649,16.105,19.649,9.6,0,16.2-7.86,16.2-19.649,0-11.743-6.6-19.65-16.2-19.65C422.2,68.888,415.794,76.655,415.794,88.538Z" fill="#f4f4f5"/>
        <path d="M464.2,99.391c0-8.327,6.451-13.379,18.093-14.128l15.717-.936v-4.21c0-7.018-4.609-11.229-12.467-11.229-7.421,0-12.175,3.509-13.291,9.4h-6.209c.728-8.7,8.149-14.877,19.646-14.877s18.724,6.222,18.724,16.14v33.31H498.3V103.6h-.146c-2.813,6.035-9.7,10.058-17.219,10.058C470.994,113.66,464.2,107.906,464.2,99.391Zm33.81-4.818v-5.38l-14.941.982c-7.955.515-12.369,3.837-12.369,9.216,0,5.287,4.705,8.936,11.545,8.936C491.076,108.327,498.013,102.292,498.013,94.573Z" fill="#f4f4f5"/>
      </g>
      <g>
        <path d="M199.251,137.284a4.974,4.974,0,0,1,1.637,4.123,5.968,5.968,0,0,1-.756,2.969,5.525,5.525,0,0,1-2.232,2.161,7.148,7.148,0,0,1-3.492.81,7.561,7.561,0,0,1-3.4-.756,6.721,6.721,0,0,1-2.5-2.089v2.485h-2.34v-6.84h2.159a5.427,5.427,0,0,0,1.819,3.689,6.022,6.022,0,0,0,4.157,1.424,4.321,4.321,0,0,0,2.916-.9,3.151,3.151,0,0,0,1.044-2.521,3.788,3.788,0,0,0-.467-2.033,3.045,3.045,0,0,0-1.5-1.152,14.874,14.874,0,0,0-2.934-.739l-.863-.143a9.516,9.516,0,0,1-4.752-1.962,4.934,4.934,0,0,1-1.692-3.942,5.052,5.052,0,0,1,1.727-4.086,6.969,6.969,0,0,1,4.644-1.458,7.827,7.827,0,0,1,3.007.557,5.3,5.3,0,0,1,2.177,1.6v-1.764h2.305v5.724h-2.124q-.684-4.032-5.221-4.033a4.312,4.312,0,0,0-2.861.865,3.108,3.108,0,0,0,.053,4.662,7.515,7.515,0,0,0,3.277,1.242l.827.144A12.071,12.071,0,0,1,199.251,137.284Z" fill="#f7f7f7"/>
        <path d="M217.736,140.471H206.072a5.638,5.638,0,0,0,1.62,3.582,4.835,4.835,0,0,0,3.492,1.314,7.657,7.657,0,0,0,5.364-2.268l.936,1.62a7.634,7.634,0,0,1-2.628,1.962,8.347,8.347,0,0,1-3.564.738,8.825,8.825,0,0,1-4.068-.936,7.05,7.05,0,0,1-2.88-2.647,7.339,7.339,0,0,1-1.044-3.905,7.724,7.724,0,0,1,.99-3.942,6.769,6.769,0,0,1,2.7-2.628,7.889,7.889,0,0,1,3.8-.918,6.642,6.642,0,0,1,5.094,1.979,7.535,7.535,0,0,1,1.854,5.364Zm-2.628-1.656a4.341,4.341,0,0,0-1.206-3.24,4.249,4.249,0,0,0-3.114-1.188,4.517,4.517,0,0,0-3.168,1.188,5.059,5.059,0,0,0-1.548,3.24Z" fill="#f7f7f7"/>
        <path d="M224.18,136.006a5.072,5.072,0,0,0-1.476,3.744,5.569,5.569,0,0,0,1.44,3.979,4.908,4.908,0,0,0,3.744,1.531,5.876,5.876,0,0,0,2.916-.667,9.022,9.022,0,0,0,2.3-1.927l1.116,1.62a7.779,7.779,0,0,1-2.772,2.251,8.581,8.581,0,0,1-3.816.81,8.036,8.036,0,0,1-3.978-.972,7.09,7.09,0,0,1-2.737-2.682,8.123,8.123,0,0,1-.035-7.7,6.738,6.738,0,0,1,2.646-2.611,7.757,7.757,0,0,1,3.816-.935,6.526,6.526,0,0,1,2.808.576,4.459,4.459,0,0,1,1.872,1.548v-1.8h2.232v5.076h-2.016a3.971,3.971,0,0,0-1.476-2.431,4.49,4.49,0,0,0-2.808-.881A5.121,5.121,0,0,0,224.18,136.006Z" fill="#f7f7f7"/>
        <path d="M253.844,145.079v1.908h-5.185l-.071-1.727a8.316,8.316,0,0,1-5.221,2.087,4.474,4.474,0,0,1-3.546-1.332,4.99,4.99,0,0,1-1.17-3.42v-7.849h-2.376v-1.908h5.041v9.469a3.174,3.174,0,0,0,.666,2.142,2.489,2.489,0,0,0,2,.774,6.731,6.731,0,0,0,4.608-1.981v-8.5h-2.557v-1.908h5.185v12.241Z" fill="#f7f7f7"/>
        <path d="M267.38,133.378l-.648,2.412a4.543,4.543,0,0,0-2.485-.792,2.964,2.964,0,0,0-2.393,1.17,4.963,4.963,0,0,0-.954,3.223l-.037,5.688h2.521v1.908H255.5v-1.908h2.736V134.746H255.5v-1.908h5.364v2.593q1.152-2.774,3.636-2.773A6.727,6.727,0,0,1,267.38,133.378Z" fill="#f7f7f7"/>
        <path d="M268.927,145.079h2.736V134.746h-2.7v-1.908h5.328v12.241h2.556v1.908h-7.92Zm2.322-15.858a1.828,1.828,0,0,1,0-2.628,2.1,2.1,0,0,1,2.773,0,1.828,1.828,0,0,1,0,2.628,2.105,2.105,0,0,1-2.773,0Z" fill="#f7f7f7"/>
        <path d="M280.807,142.811v-8.065h-2.34v-1.908h2.34v-4.823l2.664-1.044v5.867h3.744v1.908h-3.744v7.92a3.069,3.069,0,0,0,.431,1.872,1.788,1.788,0,0,0,1.477.541h2.16v1.908h-2.628Q280.807,146.987,280.807,142.811Z" fill="#f7f7f7"/>
        <path d="M292.219,150.552h1.62a6.356,6.356,0,0,0,1.548-.145,1.851,1.851,0,0,0,.954-.647,5.14,5.14,0,0,0,.774-1.584l.756-2.089h-1.116L291.5,134.746h-2.628v-1.908h7.416v1.908H294.2l4.247,9.613,3.781-9.613h-2.449v-1.908h7.381v1.908h-2.3L299.6,147.815a24.3,24.3,0,0,1-1.314,2.97,3.562,3.562,0,0,1-1.494,1.422,6.045,6.045,0,0,1-2.736.5h-1.836Z" fill="#f7f7f7"/>
        <path d="M320.047,145.079h2.808V128.626h-2.808v-1.907h8.6v1.907h-2.843v16.453h2.843v1.908h-8.6Z" fill="#f7f7f7"/>
        <path d="M348.99,145.079v1.908h-7.6v-1.908h2.339V137.7a3.4,3.4,0,0,0-.719-2.3,2.49,2.49,0,0,0-1.981-.828,6.239,6.239,0,0,0-2.105.378,13.208,13.208,0,0,0-2.322,1.133v9h2.555v1.908h-7.92v-1.908h2.737V134.746h-2.737v-1.908h5.365v1.4a9.834,9.834,0,0,1,5.112-1.763,4.656,4.656,0,0,1,3.33,1.242,4.55,4.55,0,0,1,1.313,3.474v7.884Z" fill="#f7f7f7"/>
        <path d="M352.122,142.811v-8.065h-2.34v-1.908h2.34v-4.823l2.664-1.044v5.867h3.744v1.908h-3.744v7.92a3.068,3.068,0,0,0,.432,1.872,1.785,1.785,0,0,0,1.476.541h2.161v1.908h-2.628Q352.122,146.987,352.122,142.811Z" fill="#f7f7f7"/>
        <path d="M375.234,140.471H363.57a5.634,5.634,0,0,0,1.621,3.582,4.832,4.832,0,0,0,3.492,1.314,7.653,7.653,0,0,0,5.363-2.268l.937,1.62a7.653,7.653,0,0,1-2.628,1.962,8.351,8.351,0,0,1-3.565.738,8.818,8.818,0,0,1-4.067-.936,7.046,7.046,0,0,1-2.881-2.647,7.339,7.339,0,0,1-1.044-3.905,7.724,7.724,0,0,1,.99-3.942,6.769,6.769,0,0,1,2.7-2.628,7.889,7.889,0,0,1,3.8-.918,6.642,6.642,0,0,1,5.094,1.979,7.535,7.535,0,0,1,1.854,5.364Zm-2.627-1.656a4.342,4.342,0,0,0-1.207-3.24,4.249,4.249,0,0,0-3.114-1.188,4.519,4.519,0,0,0-3.168,1.188,5.059,5.059,0,0,0-1.548,3.24Z" fill="#f7f7f7"/>
        <path d="M389.634,133.378l-.648,2.412A4.537,4.537,0,0,0,386.5,135a2.966,2.966,0,0,0-2.394,1.17,4.963,4.963,0,0,0-.954,3.223l-.036,5.688h2.52v1.908h-7.884v-1.908h2.736V134.746h-2.736v-1.908h5.364v2.593q1.152-2.774,3.636-2.773A6.72,6.72,0,0,1,389.634,133.378Z" fill="#f7f7f7"/>
        <path d="M408.93,145.079v1.908h-7.6v-1.908h2.341V137.7a3.392,3.392,0,0,0-.721-2.3,2.484,2.484,0,0,0-1.979-.828,6.251,6.251,0,0,0-2.107.378,13.242,13.242,0,0,0-2.322,1.133v9H399.1v1.908h-7.92v-1.908h2.735V134.746h-2.735v-1.908h5.363v1.4a9.834,9.834,0,0,1,5.112-1.763,4.654,4.654,0,0,1,3.33,1.242A4.547,4.547,0,0,1,406.3,137.2v7.884Z" fill="#f7f7f7"/>
        <path d="M424.877,145.079v1.908h-4.571l-.145-1.26a8.416,8.416,0,0,1-2.3,1.26,7.951,7.951,0,0,1-2.592.4,5.076,5.076,0,0,1-3.511-1.206,3.873,3.873,0,0,1-1.35-3.008,3.774,3.774,0,0,1,1.567-3.365,7.214,7.214,0,0,1,4.121-1.063,18.061,18.061,0,0,1,3.925.468v-1.475a3.2,3.2,0,0,0-.883-2.449,3.467,3.467,0,0,0-2.466-.828,9.894,9.894,0,0,0-2.394.343,10.45,10.45,0,0,0-2.465.953l-.792-1.727a9.4,9.4,0,0,1,2.754-1.153,12.037,12.037,0,0,1,2.933-.395,6.512,6.512,0,0,1,4.357,1.349,4.559,4.559,0,0,1,1.584,3.655v7.6Zm-11.214-.234a2.779,2.779,0,0,0,2,.7A7.657,7.657,0,0,0,420.018,144v-3.239a16.938,16.938,0,0,0-3.744-.433,4.268,4.268,0,0,0-2.395.63,2.3,2.3,0,0,0-.954,2.071A2.4,2.4,0,0,0,413.663,144.845Z" fill="#f7f7f7"/>
        <path d="M428.477,142.811v-8.065h-2.34v-1.908h2.34v-4.823l2.664-1.044v5.867h3.744v1.908h-3.744v7.92a3.061,3.061,0,0,0,.432,1.872,1.785,1.785,0,0,0,1.476.541h2.16v1.908h-2.628Q428.477,146.987,428.477,142.811Z" fill="#f7f7f7"/>
        <path d="M437.045,145.079h2.736V134.746h-2.7v-1.908h5.328v12.241h2.556v1.908h-7.92Zm2.322-15.858a1.826,1.826,0,0,1,0-2.628,2.1,2.1,0,0,1,2.772,0,1.826,1.826,0,0,1,0,2.628,2.1,2.1,0,0,1-2.772,0Z" fill="#f7f7f7"/>
        <path d="M450.4,146.483a6.617,6.617,0,0,1-2.682-2.647,7.948,7.948,0,0,1-.953-3.941,7.853,7.853,0,0,1,.953-3.924,6.535,6.535,0,0,1,2.682-2.61,8.383,8.383,0,0,1,4-.918,8.485,8.485,0,0,1,4.013.918,6.618,6.618,0,0,1,2.718,2.61,7.665,7.665,0,0,1,.973,3.888,7.941,7.941,0,0,1-.973,3.96,6.672,6.672,0,0,1-2.718,2.664,8.363,8.363,0,0,1-4.013.936A8.263,8.263,0,0,1,450.4,146.483Zm7.6-2.647a5.657,5.657,0,0,0,1.368-3.977,5.425,5.425,0,0,0-1.368-3.87,4.706,4.706,0,0,0-3.6-1.458,4.568,4.568,0,0,0-3.565,1.475A5.586,5.586,0,0,0,449.5,139.9a5.647,5.647,0,0,0,1.351,3.941,4.55,4.55,0,0,0,3.546,1.495A4.65,4.65,0,0,0,458,143.836Z" fill="#f7f7f7"/>
        <path d="M481.541,145.079v1.908h-7.6v-1.908h2.34V137.7a3.4,3.4,0,0,0-.719-2.3,2.49,2.49,0,0,0-1.981-.828,6.249,6.249,0,0,0-2.106.378,13.242,13.242,0,0,0-2.322,1.133v9h2.556v1.908h-7.92v-1.908h2.736V134.746h-2.736v-1.908h5.364v1.4a9.834,9.834,0,0,1,5.112-1.763,4.656,4.656,0,0,1,3.33,1.242,4.547,4.547,0,0,1,1.314,3.474v7.884Z" fill="#f7f7f7"/>
        <path d="M497.489,145.079v1.908h-4.572l-.143-1.26a8.435,8.435,0,0,1-2.3,1.26,7.953,7.953,0,0,1-2.593.4,5.078,5.078,0,0,1-3.51-1.206,3.869,3.869,0,0,1-1.349-3.008,3.775,3.775,0,0,1,1.565-3.365,7.217,7.217,0,0,1,4.122-1.063,18.038,18.038,0,0,1,3.924.468v-1.475a3.2,3.2,0,0,0-.882-2.449,3.467,3.467,0,0,0-2.466-.828,9.879,9.879,0,0,0-2.393.343,10.466,10.466,0,0,0-2.467.953l-.792-1.727a9.4,9.4,0,0,1,2.754-1.153,12.051,12.051,0,0,1,2.934-.395,6.508,6.508,0,0,1,4.356,1.349,4.553,4.553,0,0,1,1.584,3.655v7.6Zm-11.214-.234a2.78,2.78,0,0,0,2,.7A7.649,7.649,0,0,0,492.629,144v-3.239a16.922,16.922,0,0,0-3.743-.433,4.266,4.266,0,0,0-2.4.63,2.3,2.3,0,0,0-.954,2.071A2.4,2.4,0,0,0,486.275,144.845Z" fill="#f7f7f7"/>
        <path d="M499,145.079h2.628V128.231h-2.556v-1.872h5.22v18.72H506.6v1.908H499Z" fill="#f7f7f7"/>
      </g>
    </g>
  </g>
</svg>
